<mxfile host="app.diagrams.net" modified="2023-06-01T09:23:51.595Z" agent="Mozilla/5.0 (Windows NT 10.0; Win64; x64) AppleWebKit/537.36 (KHTML, like Gecko) Chrome/113.0.0.0 Safari/537.36" etag="m0aXO7XI-AMgGVr1rz26" version="21.3.6" type="github">
  <diagram name="Page-1" id="c7558073-3199-34d8-9f00-42111426c3f3">
    <mxGraphModel dx="1434" dy="333" grid="1" gridSize="10" guides="1" tooltips="1" connect="1" arrows="1" fold="1" page="1" pageScale="1" pageWidth="826" pageHeight="1169" background="none" math="0" shadow="0">
      <root>
        <mxCell id="0" />
        <mxCell id="1" parent="0" />
        <mxCell id="VL0ZfdFCA3tK70g8sOQA-99" value="&lt;ul style=&quot;margin: 1.5em 0px 1.5em 2em; padding: 0px; box-sizing: border-box; list-style: none; color: rgb(255, 255, 255); font-family: &amp;quot;Source Serif Pro&amp;quot;, serif; font-size: 18px; text-align: start;&quot;&gt;&lt;li style=&quot;margin: 0.25em 0px; padding: 0px; box-sizing: border-box; list-style-type: disc;&quot;&gt;&lt;p style=&quot;margin: 0px; padding: 0px; box-sizing: border-box;&quot;&gt;&lt;strong style=&quot;margin: 0px; padding: 0px; box-sizing: border-box;&quot;&gt;Como&lt;/strong&gt;&amp;nbsp;aumentar o limite do meu cartão de crédito?&lt;/p&gt;&lt;/li&gt;&lt;li style=&quot;margin: 0.25em 0px; padding: 0px; box-sizing: border-box; list-style-type: disc;&quot;&gt;&lt;p style=&quot;margin: 0px; padding: 0px; box-sizing: border-box;&quot;&gt;&lt;strong style=&quot;margin: 0px; padding: 0px; box-sizing: border-box;&quot;&gt;É possível&lt;/strong&gt;&amp;nbsp;aumentar o limite do meu cartão de crédito?&lt;/p&gt;&lt;/li&gt;&lt;li style=&quot;margin: 0.25em 0px; padding: 0px; box-sizing: border-box; list-style-type: disc;&quot;&gt;&lt;p style=&quot;margin: 0px; padding: 0px; box-sizing: border-box;&quot;&gt;&lt;strong style=&quot;margin: 0px; padding: 0px; box-sizing: border-box;&quot;&gt;Preciso&lt;/strong&gt;&amp;nbsp;aumentar o limite do meu cartão de crédito&lt;/p&gt;&lt;/li&gt;&lt;li style=&quot;margin: 0.25em 0px; padding: 0px; box-sizing: border-box; list-style-type: disc;&quot;&gt;&lt;p style=&quot;margin: 0px; padding: 0px; box-sizing: border-box;&quot;&gt;&lt;strong style=&quot;margin: 0px; padding: 0px; box-sizing: border-box;&quot;&gt;Da para&lt;/strong&gt;&amp;nbsp;aumentar o limite do cartão de crédito?&lt;/p&gt;&lt;/li&gt;&lt;li style=&quot;margin: 0.25em 0px; padding: 0px; box-sizing: border-box; list-style-type: disc;&quot;&gt;&lt;p style=&quot;margin: 0px; padding: 0px; box-sizing: border-box;&quot;&gt;&lt;strong style=&quot;margin: 0px; padding: 0px; box-sizing: border-box;&quot;&gt;Quero&lt;/strong&gt;&amp;nbsp;alterar a senha do meu cartão de crédito&lt;/p&gt;&lt;/li&gt;&lt;/ul&gt;" style="rounded=1;whiteSpace=wrap;html=1;" vertex="1" parent="1">
          <mxGeometry x="60" y="590" width="500" height="170" as="geometry" />
        </mxCell>
        <mxCell id="VL0ZfdFCA3tK70g8sOQA-100" value="CARTÃO DE CRÉDITO&lt;span style=&quot;white-space: pre;&quot;&gt;&#x9;&lt;/span&gt;" style="swimlane;whiteSpace=wrap;html=1;" vertex="1" parent="1">
          <mxGeometry x="-40" y="10" width="360" height="215" as="geometry" />
        </mxCell>
        <mxCell id="VL0ZfdFCA3tK70g8sOQA-104" value="&lt;div style=&quot;text-align: left;&quot;&gt;&lt;span style=&quot;background-color: initial;&quot;&gt;&lt;b&gt;aumentar &lt;/b&gt;limite cartão&lt;/span&gt;&lt;/div&gt;&lt;div style=&quot;text-align: left;&quot;&gt;&lt;span style=&quot;background-color: initial;&quot;&gt;aumentar limite do cartão&lt;/span&gt;&lt;/div&gt;&lt;div style=&quot;text-align: left;&quot;&gt;&lt;span style=&quot;background-color: initial;&quot;&gt;aumentar limite do cartão de crédito&lt;/span&gt;&lt;/div&gt;&lt;div style=&quot;text-align: left;&quot;&gt;&lt;span style=&quot;background-color: initial;&quot;&gt;aumentar o limite&lt;/span&gt;&lt;/div&gt;&lt;div style=&quot;&quot;&gt;&lt;div style=&quot;text-align: left;&quot;&gt;&lt;span style=&quot;background-color: initial; color: rgb(255, 255, 255); margin: 0px; padding: 0px; box-sizing: border-box;&quot;&gt;&lt;b&gt;Como&lt;/b&gt;&lt;/span&gt;&lt;span style=&quot;background-color: initial; color: rgb(255, 255, 255);&quot;&gt;&amp;nbsp;aumentar o limite do meu cartão de crédito&lt;/span&gt;&lt;/div&gt;&lt;span style=&quot;color: rgb(255, 255, 255); background-color: initial; margin: 0px; padding: 0px; box-sizing: border-box;&quot;&gt;&lt;div style=&quot;text-align: left;&quot;&gt;&lt;span style=&quot;background-color: initial; margin: 0px; padding: 0px; box-sizing: border-box;&quot;&gt;&lt;b&gt;É possível&lt;/b&gt;&lt;/span&gt;&lt;span style=&quot;background-color: initial;&quot;&gt;&amp;nbsp;aumentar o limite do meu cartão de crédito?&lt;/span&gt;&lt;/div&gt;&lt;/span&gt;&lt;span style=&quot;color: rgb(255, 255, 255); background-color: initial; margin: 0px; padding: 0px; box-sizing: border-box;&quot;&gt;&lt;div style=&quot;text-align: left;&quot;&gt;&lt;span style=&quot;background-color: initial; margin: 0px; padding: 0px; box-sizing: border-box;&quot;&gt;&lt;b&gt;Preciso&lt;/b&gt;&lt;/span&gt;&lt;span style=&quot;background-color: initial;&quot;&gt;&lt;b&gt;&amp;nbsp;&lt;/b&gt;aumentar o limite do meu cartão de crédito&lt;/span&gt;&lt;/div&gt;&lt;/span&gt;&lt;span style=&quot;color: rgb(255, 255, 255); background-color: initial; margin: 0px; padding: 0px; box-sizing: border-box;&quot;&gt;&lt;div style=&quot;text-align: left;&quot;&gt;&lt;span style=&quot;background-color: initial; margin: 0px; padding: 0px; box-sizing: border-box;&quot;&gt;&lt;b&gt;Da para&lt;/b&gt;&lt;/span&gt;&lt;span style=&quot;background-color: initial;&quot;&gt;&amp;nbsp;aumentar o limite do cartão de crédito?&lt;/span&gt;&lt;/div&gt;&lt;/span&gt;&lt;span style=&quot;color: rgb(255, 255, 255); background-color: initial; margin: 0px; padding: 0px; box-sizing: border-box;&quot;&gt;&lt;div style=&quot;text-align: left;&quot;&gt;&lt;span style=&quot;background-color: initial; margin: 0px; padding: 0px; box-sizing: border-box;&quot;&gt;&lt;b&gt;Quero&lt;/b&gt;&lt;/span&gt;&lt;span style=&quot;background-color: initial;&quot;&gt;&lt;b&gt;&amp;nbsp;&lt;/b&gt;alterar a senha do meu cartão de crédito&lt;/span&gt;&lt;/div&gt;&lt;div style=&quot;text-align: left;&quot;&gt;&lt;span style=&quot;background-color: initial;&quot;&gt;&lt;b&gt;solicitar &lt;/b&gt;aumento do limite&amp;nbsp;&lt;/span&gt;&lt;/div&gt;&lt;div style=&quot;text-align: left;&quot;&gt;&lt;span style=&quot;background-color: initial;&quot;&gt;&lt;br&gt;&lt;/span&gt;&lt;/div&gt;&lt;/span&gt;&lt;span style=&quot;background-color: initial;&quot;&gt;&lt;br&gt;&lt;/span&gt;&lt;/div&gt;" style="text;html=1;align=center;verticalAlign=middle;resizable=0;points=[];autosize=1;strokeColor=none;fillColor=none;" vertex="1" parent="VL0ZfdFCA3tK70g8sOQA-100">
          <mxGeometry x="20" y="25" width="320" height="190" as="geometry" />
        </mxCell>
        <mxCell id="VL0ZfdFCA3tK70g8sOQA-106" value="intenção:&amp;nbsp;&quot;aumentar&quot;" style="swimlane;whiteSpace=wrap;html=1;startSize=40;" vertex="1" parent="1">
          <mxGeometry x="-40" y="240" width="190" height="190" as="geometry" />
        </mxCell>
        <mxCell id="VL0ZfdFCA3tK70g8sOQA-107" value="&lt;div style=&quot;text-align: left;&quot;&gt;&lt;br&gt;&lt;/div&gt;" style="text;html=1;align=center;verticalAlign=middle;resizable=0;points=[];autosize=1;strokeColor=none;fillColor=none;" vertex="1" parent="VL0ZfdFCA3tK70g8sOQA-106">
          <mxGeometry x="110" y="50" width="20" height="30" as="geometry" />
        </mxCell>
        <mxCell id="VL0ZfdFCA3tK70g8sOQA-110" value="entidade:&amp;nbsp;&quot;aumentar o limite do meu cartão de crédito&quot;" style="swimlane;whiteSpace=wrap;html=1;startSize=40;" vertex="1" parent="1">
          <mxGeometry x="170" y="240" width="190" height="190" as="geometry" />
        </mxCell>
        <mxCell id="VL0ZfdFCA3tK70g8sOQA-111" value="&lt;div style=&quot;text-align: left;&quot;&gt;&lt;br&gt;&lt;/div&gt;" style="text;html=1;align=center;verticalAlign=middle;resizable=0;points=[];autosize=1;strokeColor=none;fillColor=none;" vertex="1" parent="VL0ZfdFCA3tK70g8sOQA-110">
          <mxGeometry x="110" y="50" width="20" height="30" as="geometry" />
        </mxCell>
        <mxCell id="VL0ZfdFCA3tK70g8sOQA-112" value="como&lt;br&gt;é possível&lt;br&gt;preciso&lt;br&gt;da para&lt;br&gt;quero&lt;br&gt;solicitar&lt;br&gt;" style="text;html=1;align=left;verticalAlign=middle;resizable=0;points=[];autosize=1;strokeColor=none;fillColor=none;" vertex="1" parent="VL0ZfdFCA3tK70g8sOQA-110">
          <mxGeometry x="40" y="50" width="80" height="100" as="geometry" />
        </mxCell>
      </root>
    </mxGraphModel>
  </diagram>
</mxfile>
